<?xml version="1.0" encoding="utf-8"?>
<!-- Generator: Adobe Illustrator 23.0.3, SVG Export Plug-In . SVG Version: 6.00 Build 0)  -->
<svg version="1.1" id="Layer_1" xmlns="http://www.w3.org/2000/svg" xmlns:xlink="http://www.w3.org/1999/xlink" x="0px" y="0px"
	 viewBox="0 0 320 320" style="enable-background:new 0 0 320 320;" xml:space="preserve">
<style type="text/css">
	.st0{fill:#875B24;}
	.st1{fill:#333333;}
	.st2{fill:#B6BE34;}
	.st3{fill:#EDAA1F;}
	.st4{fill:#F05756;}
	.st5{fill:none;stroke:#333333;stroke-width:4;stroke-miterlimit:10;}
	.st6{fill:#7A5CA6;}
	.st7{fill:#94CC86;}
</style>
<g>
	<path class="st0" d="M82.66,136.74c-0.04-0.61-0.12-1.24-0.25-1.87c-0.03-0.2-0.07-0.4-0.11-0.6l-1.18-5.34l-0.28-1.26l-1.45-6.58
		l-0.16-0.73l-0.14-0.64l-0.3-1.36l-0.06-0.26l-0.33-1.49l-2.57-11.69c-0.73,2.73-1.11,5.58-1.11,8.51c0,0.95,0.04,1.89,0.12,2.82
		c-1.25-0.69-1.88-2.1-1.47-3.84c0.64-2.78,1.39-5.54,2.29-8.26l-0.75-3.38c-1.34,2.63-2.27,5.38-2.69,8.26
		c-0.24,1.55-0.33,3.13-0.26,4.75c0.05,1.02,0.34,1.91,0.84,2.62c0.53,0.75,1.28,1.3,2.23,1.59c0.11,0.8,0.25,1.6,0.42,2.39
		c-1.01,0.45-1.76,1.25-2.17,2.22c-0.5,1.15-0.53,2.55,0.02,3.95c0.12,0.3,0.24,0.6,0.36,0.9c0.2,0.5,0.4,0.99,0.61,1.48h-2.5
		c-3.02-8.63-2.88-17.78-0.03-25.95c0.66-1.91,1.47-3.77,2.43-5.55l-0.32-1.47l-0.93-4.23l-7.81-35.39
		c-1.3-5.88-5.21-10.09-8.59-9.25l-4.37,1.09c-1.2,0.3-2.17,1.19-2.84,2.48c-1.23,2.35-1.47,6.02-0.41,9.78l13.93,49.66v0.01
		l2.53,9.01v0.01l0.06,0.18l2.69,9.62l1.95,6.93l0.25,0.89l0.15,0.54c0.78,2.78,2.14,5.09,3.69,6.57c1.47,1.4,3.12,2.05,4.65,1.67
		C81.49,144.87,83.01,141.2,82.66,136.74z M74.61,125.22c-0.22-0.53,0.49-1.91,1.32-2.87c0.55,1.97,1.27,3.87,2.15,5.69l0.19,0.89
		h-2.02C75.68,127.71,75.13,126.47,74.61,125.22z"/>
	<g>
		<path class="st1" d="M83.73,136.43c0-0.07,0-0.14-0.01-0.21c-0.03-0.51-0.08-1.02-0.16-1.54c-0.04-0.3-0.1-0.61-0.17-0.92
			l-0.72-3.42c-0.33-0.46-0.66-0.93-0.99-1.41c-0.19-0.28-0.37-0.56-0.56-0.84c-0.09-0.14-0.19-0.28-0.28-0.42
			c-0.9-1.38-1.76-2.78-2.59-4.2c-0.23-0.39,0.04-1.38,0.51-2.3c0.14-0.28,0.3-0.56,0.47-0.81c0.2-0.28,0.4-0.53,0.6-0.72
			c0.16-0.15,0.33-0.27,0.48-0.33l-0.29-1.33l-0.01-0.06c-0.07,0.01-0.15,0.04-0.21,0.05c-0.05,0.01-0.1,0.03-0.14,0.05
			c-0.31,0.08-0.6,0.2-0.87,0.34c-0.75,0.38-1.34,0.93-1.74,1.6c-0.21,0.33-0.36,0.7-0.47,1.08l0.12,0.58l0.9,4.18l0.48,2.24
			l0.19,0.89l0.82,3.83l0.39,1.84c0.06,0.27,0.11,0.56,0.15,0.84c0.01,0.05,0.01,0.09,0.02,0.14c0.03,0.19,0.05,0.39,0.06,0.58
			c0.02,0.2,0.03,0.39,0.03,0.59c0.02,0.42,0.01,0.84-0.03,1.24c-0.22,2.96-1.63,5.36-3.75,5.88c-0.59,0.15-1.2,0.14-1.81-0.01
			c-2.34-0.53-4.63-3.08-5.62-6.47l-0.18-0.63l-2.26-7.83h-4.16l2.26,7.84l0.5,1.72c1.76,6.08,6.66,10.05,11.41,9.42
			c0.28-0.04,0.56-0.09,0.83-0.16c4.26-1.05,6.96-5.62,6.81-11.01C83.74,136.64,83.74,136.54,83.73,136.43z M64.28,122.67
			l-1.96-6.78v-0.03l-1.59-5.47l-0.83-2.86L46.37,60.69c-0.82-2.87-0.6-5.84,0.61-7.92c0.43-0.75,1.17-1.68,2.33-2.11
			c0.12-0.05,0.24-0.09,0.37-0.12l5.48-1.35c0.12-0.04,0.26-0.07,0.39-0.08c1.21-0.16,2.29,0.32,3.02,0.77
			c2.03,1.26,3.61,3.75,4.23,6.66l7.94,37.12l0.14,1.4l0.54,5.3c0.39-1.89,1.45-3.01,2.43-4.4c0.39-0.55,0.76-1.15,1.07-1.86
			l-0.85-3.99l-0.48-2.26L66.72,55.7c-0.85-3.94-3.1-7.38-6.03-9.21c-2.07-1.29-4.37-1.71-6.5-1.19l-5.47,1.36
			c-2.14,0.53-3.99,1.99-5.21,4.11c-1.74,3.01-2.1,7.13-0.97,11.02L55,104.93l0.27,0.95l5.12,17.72l0.85,2.94
			C62.51,125.49,63.55,124.17,64.28,122.67z"/>
	</g>
	<path class="st2" d="M277,129.36c-0.56,1.7-1.06,3.42-1.48,5.14h1.86c-1.01,2.89-1.5,4.89-1.11,5.21c0.4,0.32-3.57,0.55-9.69,0.7
		c-6.38,0.16-15.12,0.24-23.68,0.28c-5.92,0.02-11.75,0.03-16.66,0.03c-7.74,0-13.21-0.03-13.21-0.03s-0.29-1.08-0.57-2.92
		c-0.07-0.39-0.13-0.82-0.18-1.29c-0.08-0.64-0.15-1.34-0.22-2.1c-0.76-10.05,1.23-29.25,25.83-35.69c0,0,11.67-2.4,19.66-8.99
		c0,0,5.08-2.95,10.58-3.19c4.17-0.18,8.57,1.16,11.24,6.47c0,0,3.67,2.81,6.35,6.15c1.73,6.58-0.48,12.93-4.09,19.47
		C279.76,121.98,278.21,125.63,277,129.36z"/>
	<path class="st3" d="M154.07,113.43c0,5.52-1.35,10.74-3.76,15.42c-0.52,1-1.09,1.98-1.7,2.93c-1.13,1.75-2.41,3.41-3.84,4.96
		c-0.39,0.43-0.79,0.84-1.21,1.25c-7.25,7.18-17.63,11.67-29.17,11.67c-12.19,0-23.09-5.02-30.37-12.92
		c-0.1-0.1-0.19-0.21-0.29-0.31c-0.03-0.04-0.07-0.08-0.1-0.12c-0.42-0.47-0.83-0.95-1.22-1.44c-1.49-1.85-2.8-3.84-3.89-5.94
		c-0.15-0.29-0.3-0.59-0.44-0.89c-0.88-1.82-1.6-3.72-2.15-5.69c-0.18-0.65-0.34-1.31-0.48-1.97c-0.17-0.79-0.31-1.59-0.42-2.39
		c-0.08-0.58-0.14-1.16-0.19-1.74c-0.08-0.93-0.12-1.87-0.12-2.82c0-2.93,0.38-5.78,1.11-8.51c0.67-2.58,1.65-5.04,2.89-7.37
		c0.35-0.66,0.73-1.3,1.12-1.93c0.93-1.51,1.97-2.94,3.12-4.3c3.37-3.98,7.62-7.31,12.49-9.74c0.01,0,0.02,0,0.03-0.01
		c4.77-2.36,10.12-3.86,15.81-4.26c1.02-0.07,2.06-0.11,3.1-0.11c7.85,0,15.16,2.08,21.32,5.67
		C146.75,89.3,154.07,100.58,154.07,113.43z"/>
	<g>
		<path class="st4" d="M204.53,104.56c0.02,0.04,0.05,0.09,0.07,0.14c0.79,4.61,2.43,7.1,0.36,10.43
			c-3.5,5.62-8.81,9.68-14.59,13.14c-5.61,3.36-11.57,6.23-18.16,7.77c-1.19,0.28-2.38,0.63-3.64,0.41
			c-2.62-8.53-3.14-17.17-0.69-25.76c2.53-8.87,8.82-14.57,20.38-14.08c2.54,0.11,4.99,0.57,7.41,1.16
			C199.58,98.72,202.78,101.23,204.53,104.56z"/>
	</g>
	<path class="st1" d="M291.31,79.75c-3.58,1.9-6.93,4.23-10.46,6.21c-1.05,0.58-2.98,1.22-3.6,0.73
		c-8.94-7.27-17.68-5.14-26.84-0.28c-4.82,2.55-10.18,4.08-15.35,5.93c-3.34,1.2-6.89,1.87-10.14,3.25
		c-13.06,5.53-21,20.05-19.04,33.67c0.16,1.17,0.41,2.34,0.72,3.48c0.15,0.56,0.32,1.11,0.5,1.66c0.38,1.17,0.8,2.29,1.28,3.39h4.5
		c-0.23-0.42-0.43-0.85-0.63-1.29c-0.32-0.68-0.62-1.39-0.87-2.1c-0.62-1.68-1.05-3.4-1.31-5.14c-1.16-7.68,1.03-15.75,6.48-22.26
		c4.52-5.42,10.25-8.7,17.08-9.92c7.24-1.31,13.86-3.96,20.2-7.64c4.37-2.53,9.06-4.33,14.27-2.91c0.14,0.02,0.29,0.06,0.43,0.11
		c6.3,1.89,7.17,5.17,2.58,9.69c-3.11,3.05-6.2,6.11-9.3,9.18c-0.01-0.01-0.01-0.01-0.01-0.01c-1.22,1.2-2.53,2.33-3.65,3.63
		c-4.38,5.1-9.14,9.17-16.59,8.67c-2.21-0.15-4.65,0.98-6.75,2c-4.43,2.13-5.61,5.04-4.64,9.48c0.09,0.42,0.19,0.85,0.32,1.3
		c0.32,1.11,0.38,2.54,0.14,3.84c-0.15,0.85-0.43,1.64-0.85,2.25c-0.27,0.39-0.55,0.76-0.85,1.14h2.51c1.77-1.21,3.71-1.4,6.05-0.47
		c0.45,0.18,0.91,0.34,1.34,0.47h5.35c0.09-0.03,0.18-0.08,0.27-0.12c1.32-0.6,2.42-1.68,3.29-3.27c0.29-0.54,0.55-1.14,0.79-1.8
		c0.39-1.08,0.69-2.21,0.95-3.34c0.63-2.81,0.97-5.74,1.67-8.54c0.41-1.64,1.02-3.5,2.15-4.65c6.44-6.59,13.07-13.01,19.64-19.49
		c3.38-3.33,6.18-2.85,8.17,1.55c1.86,4.09,1.89,8.4-0.24,12.23c-3.38,6.07-6.02,12.37-8.25,18.86c-0.61,1.75-1.18,3.52-1.73,5.3
		c-0.34,1.08-0.66,2.18-0.97,3.27c1.55,0,3.11,0.01,4.65,0.01c0.32-1.02,0.62-2.06,0.88-3.12c0.01-0.05,0.02-0.11,0.04-0.16
		c0.42-1.72,0.92-3.44,1.48-5.14c1.21-3.73,2.76-7.38,4.63-10.77c3.61-6.54,5.82-12.89,4.09-19.47c-0.81-3.11-2.52-6.27-5.37-9.52
		c4.44-2.6,8.26-4.78,12.01-7.1c0.94-0.57,1.64-1.54,2.46-2.33C293.63,80.01,292.17,79.29,291.31,79.75z M237.57,120.24
		c3.04-0.97,6.31-1.26,9.47-1.85c0.13,0.3,0.25,0.6,0.37,0.89c-3.37,3.32-6.73,6.64-10.11,9.97c-1.17,1.16-2.34,2.3-3.51,3.46
		c-0.89-1.23-1.55-2.38-1.97-3.46C230.17,125.03,232.03,122.01,237.57,120.24z M248.41,129.24c-0.54,1.89-1.35,3.61-2.65,5.14
		c-0.14,0.18-0.3,0.37-0.49,0.54c-0.24,0.27-0.51,0.53-0.79,0.78c-3.17,2.84-6.32,0.14-9.83-1.13l0.19-0.19
		c1.75-1.73,3.47-3.43,5.22-5.14c3.02-2.98,6.09-6.01,9.46-9.33C249.37,123.31,249.19,126.46,248.41,129.24z"/>
	<g>
		<path class="st1" d="M146.57,96.28c-2.79-5.32-6.52-9.82-10.86-13.41c-12.97-10.75-31.47-13.33-47.2-5.11
			c-5.52,2.88-10.18,6.86-13.83,11.54c-0.21,0.27-0.42,0.54-0.61,0.81c-0.41,0.53-0.79,1.07-1.15,1.62
			c-0.66,0.96-1.27,1.94-1.83,2.95c-0.07,0.13-0.14,0.25-0.21,0.38c-3.5,6.29-5.43,13.39-5.56,20.57c-0.02,1.08,0,2.17,0.07,3.25
			v0.01c0,0.14,0.01,0.28,0.03,0.42c0.21,3.24,0.8,6.47,1.79,9.62c0.12,0.42,0.26,0.84,0.4,1.25c0.63,1.86,1.42,3.69,2.34,5.48
			c0.04,0.07,0.07,0.13,0.11,0.2c0.15,0.3,0.31,0.6,0.48,0.89c0.23,0.43,0.48,0.85,0.73,1.26c1.04-0.01,2.08-0.01,3.12-0.01h1.92
			c-0.28-0.41-0.55-0.83-0.81-1.25c-0.45-0.72-0.88-1.45-1.28-2.21c-0.01-0.03-0.03-0.05-0.04-0.08c-0.74-1.4-1.39-2.83-1.95-4.28
			c-0.16-0.41-0.31-0.83-0.46-1.25c-3.02-8.63-2.88-17.78-0.03-25.95c0.66-1.91,1.47-3.77,2.43-5.55c0.32-0.6,0.66-1.18,1.01-1.76
			c3.4-5.61,8.28-10.38,14.43-13.66c6.95-3.7,14.45-5.18,21.68-4.7c12.93,0.87,24.98,8.05,31.45,20.17
			c5.37,10.05,5.93,21.39,2.49,31.37c-0.14,0.42-0.29,0.83-0.45,1.25c-0.88,2.31-1.98,4.53-3.3,6.64c-0.26,0.42-0.53,0.84-0.81,1.25
			h4.89c0.25-0.41,0.49-0.83,0.72-1.25c0.89-1.6,1.67-3.26,2.33-4.96c0.22-0.56,0.43-1.12,0.62-1.68c0.14-0.41,0.28-0.83,0.4-1.25
			C152.89,118.44,152.11,106.82,146.57,96.28z"/>
		<path class="st1" d="M105.36,90.47c-0.42-10.52-3.87-11.09-9.88-8.9c-0.01,0.01-0.02,0.01-0.03,0.01
			c-1.08,0.41-2.25,0.89-3.5,1.43c-0.24,0.1-0.46,0.24-1.55,0.82c-0.81,0.56-2.45,1.63-4.01,2.8c-2.16,1.6-3.3,3.13-3.43,4.69
			c-0.12,1.63,0.85,3.28,2.93,5.06c5.65,4.81,11.34,9.57,17.09,14.26c0.89,0.73,2.22,0.93,3.35,1.37c0.21-1.22,0.67-2.46,0.58-3.66
			C106.46,102.39,105.6,96.44,105.36,90.47z M104.75,110.14c-6.3-5.2-12.63-10.34-18.87-15.61c-1.96-1.66-1.96-4.16-0.02-5.41
			c4.11-2.65,8.49-4.95,12.96-6.92c2.31-1.01,4.17,0.65,4.43,3.06c0.9,8.14,1.6,16.29,2.37,24.43
			C105.33,109.84,105.04,109.99,104.75,110.14z"/>
		<path class="st1" d="M144.63,115.86c-1.66-0.61-3.43-1.89-5.12-1.78c-8.06,0.51-16.1,1.35-24.14,2.2
			c-0.87,0.09-1.67,0.91-2.5,1.39c0.45,0.75,0.73,1.68,1.36,2.21c3.54,3,7.08,6.01,10.65,8.97c0.5,0.42,1,0.84,1.5,1.25
			c2.15,1.79,4.31,3.55,6.49,5.29c0.9,0.72,1.82,1.17,2.71,1.35c0.6,0.12,1.18,0.12,1.72,0c1.37-0.3,2.56-1.33,3.34-3.1
			c0.5-1.16,0.95-2.34,1.36-3.54c0.14-0.41,0.28-0.83,0.42-1.24c0.96-2.93,1.74-5.93,2.57-8.9
			C145.28,118.93,144.81,117.68,144.63,115.86z M143.37,119.04c-0.73,3.31-1.63,6.6-2.73,9.81c-0.14,0.42-0.28,0.84-0.43,1.25
			c-0.35,0.98-0.72,1.96-1.11,2.92c-0.05,0.14-0.11,0.29-0.17,0.43c-0.03,0.08-0.09,0.15-0.17,0.22c-0.01,0.01-0.01,0.01-0.01,0.01
			c-0.82,0.75-3.83,1.26-4.68,0.61c-1.79-1.37-3.55-2.76-5.32-4.19c-0.52-0.42-1.03-0.83-1.55-1.25
			c-4.24-3.46-8.55-7.13-13.31-11.08c9.58-0.83,17.94-1.69,26.32-2.11C141.27,115.61,143.57,118.14,143.37,119.04z"/>
		<path class="st1" d="M109.67,136.74c-0.2-2.21-0.42-4.43-0.65-6.64c-0.04-0.42-0.09-0.83-0.13-1.25c-0.2-1.88-0.39-3.76-0.59-5.64
			c-0.09-0.9-0.73-1.75-1.12-2.62c-0.86,0.45-1.98,0.7-2.56,1.39c-1.94,2.29-3.88,4.57-5.81,6.87c-0.35,0.42-0.7,0.83-1.05,1.25
			c-1.84,2.2-3.68,4.41-5.48,6.64c-0.35,0.41-0.68,0.83-1.02,1.25h1.92c0.33-0.42,0.67-0.83,1.01-1.25
			c1.77-2.19,3.59-4.38,5.45-6.64c0.34-0.41,0.68-0.83,1.03-1.25c1.94-2.35,3.94-4.76,6.03-7.3c0.24,2.52,0.48,4.95,0.71,7.3
			c0.04,0.42,0.08,0.84,0.12,1.25c0.22,2.27,0.43,4.48,0.63,6.64c0.04,0.42,0.08,0.84,0.12,1.25h1.51
			C109.75,137.57,109.71,137.16,109.67,136.74z"/>
		<path class="st1" d="M132.09,136.78c-0.02-0.01-0.03-0.03-0.05-0.04c-2.59-2.25-5.23-4.45-7.88-6.64
			c-0.5-0.42-1.01-0.83-1.52-1.25c-3.36-2.77-6.75-5.52-10.11-8.28c-0.5-0.41-1.07-0.73-2.57-1.75c-0.1,1.94-0.2,2.46-0.15,2.98
			c0.21,2.35,0.42,4.7,0.63,7.05c0.04,0.42,0.07,0.83,0.11,1.25c0.19,2.21,0.39,4.43,0.6,6.64c0.03,0.42,0.07,0.83,0.11,1.25h1.44
			c-0.04-0.42-0.08-0.83-0.12-1.25c-0.23-2.21-0.44-4.43-0.65-6.64c-0.04-0.42-0.08-0.83-0.12-1.25c-0.21-2.14-0.41-4.28-0.62-6.41
			c0.32-0.12,0.65-0.25,0.97-0.37c2.74,2.26,5.48,4.52,8.22,6.78c0.5,0.42,1.01,0.83,1.51,1.25c2.66,2.2,5.32,4.41,7.95,6.64
			c0.31,0.26,0.61,0.51,0.91,0.77c0.18,0.16,0.35,0.32,0.5,0.48h1.92C132.89,137.56,132.52,137.15,132.09,136.78z"/>
		<path class="st1" d="M102.9,112.56c-6.27-5.28-12.52-10.58-18.97-15.63c-1.12-0.88-2.8-1.05-4.09-1.31
			c-0.25-0.05-0.49-0.1-0.7-0.16c-1.17,0.97-1.8,1.3-2.15,1.81c-0.54,0.79-1.04,1.59-1.5,2.41c-0.2,0.36-0.4,0.73-0.58,1.09
			c-1.34,2.63-2.27,5.38-2.69,8.26c-0.24,1.55-0.33,3.13-0.26,4.75c0.05,1.02,0.34,1.91,0.84,2.62c0.53,0.75,1.28,1.3,2.23,1.59
			c0.57,0.19,1.22,0.27,1.92,0.25c0.13,0,0.26-0.01,0.39-0.02c0.46-0.04,0.93-0.08,1.39-0.12c0.31-0.03,0.62-0.06,0.93-0.08
			c0.12-0.01,0.24-0.02,0.36-0.04c7.27-0.63,14.54-1.31,21.8-2.05c0.78-0.07,1.91-0.61,2.12-1.2
			C104.13,114.18,103.49,113.06,102.9,112.56z M78.4,116.61c-0.43,0.03-0.86,0.06-1.29,0.09c-0.1,0.01-0.19,0.01-0.28,0.01
			c-0.76,0.01-1.44-0.15-1.99-0.46c-1.25-0.69-1.88-2.1-1.47-3.84c0.64-2.78,1.39-5.54,2.29-8.26c0.04-0.16,0.1-0.32,0.15-0.48
			c0.46-1.42,0.97-2.82,1.52-4.2c0.35-0.87,0.82-1.51,1.39-1.92c1.29-0.95,3.04-0.7,4.7,0.65c6.24,5.07,12.38,10.27,19.52,16.21
			C94.08,115.22,86.22,116.04,78.4,116.61z"/>
		<path class="st1" d="M125.85,83.81c-4.16-1.78-8.59-2.95-12.95-4.18c-1.18-0.33-2.55,0.06-4.42,0.15
			c-0.72,1.51-2.18,3.11-2.08,4.61c0.53,8.45,1.35,16.89,2.27,25.32c0.25,2.36,1.67,2.92,3.37,0.88
			c5.25-6.32,10.56-12.6,15.67-19.04C130.06,88.61,129.38,85.33,125.85,83.81z M126.47,90.76c-5.1,6.38-10.37,12.63-15.57,18.93
			c-0.31-0.12-0.62-0.24-0.92-0.37c-0.72-7.9-1.44-15.8-2.16-23.71c-0.28-3.09,1.14-5.14,4.23-4.48c4.53,0.97,9.01,2.4,13.33,4.09
			C127.99,86.23,128.11,88.72,126.47,90.76z"/>
		<path class="st1" d="M143.67,105.74c-0.58-2.26-1.61-4.4-2.53-6.81c-1.39-1.98-2.72-4.25-4.42-6.21
			c-2.37-2.75-5.36-2.83-7.71-0.12c-5.37,6.22-10.59,12.57-15.8,18.93c-0.49,0.6-0.87,1.85-0.57,2.36c0.35,0.58,1.55,0.97,2.33,0.9
			c8.07-0.71,16.13-1.44,24.18-2.36C142.99,111.99,144.62,109.51,143.67,105.74z M138.87,111.04c-8.03,0.85-16.07,1.53-25.38,2.39
			c6.07-7.29,11.31-13.74,16.74-20.02c1.63-1.89,4.04-1.81,5.36,0.33c2.45,3.95,4.74,8.06,6.58,12.32
			C143.31,108.71,141.74,110.74,138.87,111.04z"/>
		<path class="st1" d="M103.34,117.52c-7.85,0.68-15.69,1.27-23.51,2.12c-0.25,0.03-0.5,0.05-0.74,0.08c-0.67,0.08-1.33,0.15-2,0.23
			c-0.01,0-0.03,0-0.04,0.01c-0.06,0-0.12,0.01-0.18,0.02c-0.52,0.06-1,0.2-1.42,0.4c-1.01,0.45-1.76,1.25-2.17,2.22
			c-0.5,1.15-0.53,2.55,0.02,3.95c0.12,0.3,0.24,0.6,0.36,0.9c0.2,0.5,0.4,0.99,0.61,1.48c0.18,0.42,0.36,0.84,0.55,1.25
			c1,2.27,2.13,4.48,3.41,6.57c0.05,0.1,0.11,0.19,0.17,0.29c0.2,0.32,0.4,0.64,0.61,0.96c0.23,0,0.46,0,0.7-0.01
			c0.48,0,0.96,0,1.44,0.01c-0.26-0.42-0.51-0.84-0.76-1.26c-0.26-0.43-0.51-0.87-0.76-1.3c-0.53-0.93-1.05-1.87-1.54-2.82
			c-0.43-0.81-0.84-1.62-1.24-2.44c-0.2-0.41-0.4-0.83-0.6-1.25c-0.57-1.22-1.12-2.46-1.64-3.71c-0.22-0.53,0.49-1.91,1.32-2.87
			c0.25-0.3,0.52-0.55,0.77-0.73c0.18-0.12,0.35-0.21,0.5-0.25c0.03-0.01,0.06-0.02,0.09-0.02l1.47-0.18
			c0.21-0.03,0.42-0.06,0.63-0.08c7.56-0.92,15.24-1.49,23.98-2.29c-2.96,3.52-5.72,6.85-8.42,10.05c-0.37,0.45-0.75,0.89-1.12,1.33
			c-1.89,2.24-3.76,4.43-5.66,6.56c-0.37,0.42-0.75,0.84-1.12,1.25h2.27c0.35-0.42,0.69-0.83,1.04-1.25
			c1.84-2.2,3.69-4.42,5.52-6.63c0.35-0.42,0.7-0.84,1.04-1.26c2.05-2.47,4.09-4.95,6.12-7.44c0.74-0.91,1.18-2.07,1.81-3.2
			C104.02,117.82,103.67,117.49,103.34,117.52z"/>
	</g>
	<path class="st5" d="M202.09,118.31c-6.27,10.69-24.71,22.28-35.4,16.01s-9.58-28.02-3.31-38.71s18.05-10.25,28.74-3.98
		C202.81,97.9,208.35,107.62,202.09,118.31z"/>
	<path class="st6" d="M65.47,117.52c0,0.46-0.03,0.91-0.08,1.36v0.01c-0.01,0.08-0.02,0.15-0.03,0.23v0.01
		c-0.17,1.25-0.54,2.44-1.08,3.54c-0.73,1.5-1.77,2.82-3.04,3.87c-1.36,1.13-2.97,1.97-4.75,2.39c-0.88,0.22-1.81,0.33-2.76,0.33
		c-0.21,0-0.42-0.01-0.62-0.02c-0.73-0.03-1.45-0.14-2.13-0.31c-5.16-1.24-8.99-5.88-8.99-11.41c0-6.49,5.26-11.74,11.74-11.74
		c0.52,0,1.04,0.03,1.54,0.1c0.66,0.09,1.31,0.23,1.93,0.42c0.96,0.29,1.86,0.71,2.7,1.23c1.12,0.69,2.11,1.56,2.93,2.57v0.01
		c1.28,1.56,2.15,3.45,2.49,5.52C65.42,116.25,65.47,116.88,65.47,117.52z"/>
	<circle class="st6" cx="158.64" cy="74.82" r="12.99"/>
	<circle class="st6" cx="217.33" cy="80.44" r="13.01"/>
	<circle class="st5" cx="49.23" cy="116.72" r="13.11"/>
	<circle class="st5" cx="154.3" cy="76.07" r="13.11"/>
	<circle class="st5" cx="213.65" cy="80.54" r="13.11"/>
	<g>
		<g>
			<path class="st7" d="M132.94,270.85c0,0-5.21,1.46-4.76-15.66c0.45-17.12,2.37-16.91,2.37-16.91l85.84-5.55
				c1.13-0.07,2.08,0.77,2.08,1.84v23.36c0,0.92-0.72,1.7-1.68,1.83L132.94,270.85z"/>
			<path class="st7" d="M43.32,137.06c0.36-0.43,0.92-0.66,1.49-0.66c14.32-0.03,28.63-0.07,42.95-0.07
				c63.18-0.01,126.35,0,189.53-0.01c8.69,0,17.38,0.08,26.06-0.06c2.41-0.04,2.98,0.75,2.84,2.93
				c-1.04,15.92-5.86,30.73-13.86,44.61c-5.74,9.96-12.77,19.06-21.23,26.92c-8.74,8.12-18.53,15.03-29.16,20.76
				c-15.24,8.21-31.5,13.72-48.62,16.6c-14.87,2.5-29.86,3.09-44.95,1.5c-9.55-1.01-18.92-2.71-28.19-5.06
				c0.15-0.07,0.43-0.19,0.43-0.2c-0.21-0.49-0.66-0.32-1.04-0.34l0.08,0.03c-4.43-2.19-8.86-4.39-13.28-6.58l0.01,0.02
				c-1.13-1.01-2.47-1.69-3.84-2.32c-0.33-0.2-0.87-0.51-1.2-0.71c0,0,0,0-0.01,0c-0.22-0.17-0.42-0.36-0.65-0.51
				c-20.77-13.16-37.25-30.05-48.03-51.9c-6.33-12.83-9.85-26.36-10.76-40.55C41.79,139.71,42.29,138.29,43.32,137.06z"/>
		</g>
		<path class="st7" d="M128.07,257.33c0.02-1.13,1.1-1.98,2.28-1.79c4.53,0.73,9.05,1.54,13.61,2.05
			c11.4,1.29,22.84,1.34,34.29,0.63c13.05-0.81,25.76-3.26,38.22-7.06c0.77-0.24,1.89-0.61,1.85,0.69
			c-0.15,4.5,1.04,9.19-1.66,13.38c-2.29,3.55-5.39,5.7-9.96,5.69c-24.29-0.06-48.58-0.04-72.87-0.05c-0.59,0-1.14-0.26-1.52-0.69
			C129.04,266.42,127.99,262.04,128.07,257.33z"/>
	</g>
	<path class="st1" d="M204.33,248.23c0.04-1.25-1-0.89-1.73-0.66c-11.66,3.67-23.56,6.03-35.77,6.82
		c-10.43,0.66-20.85,0.64-31.24-0.52c-0.28-0.02-0.57-0.06-0.85-0.09c-4.95-0.58-9.85-1.53-14.77-2.31c-0.01,0-0.01,0-0.01,0
		c-4.85-1.31-9.76-2.33-14.49-4.04c-1.1-0.39-1.31,0.09-1.28,1.09c0.05,2.59-0.07,5.18,0.04,7.76c0.22,5.41,4.88,10.07,10.36,10.29
		c3.27,0.13,6.55,0.01,9.83,0.01h12.79c11.11,0.01,22.22,0.01,33.33,0.02c7.64,0.01,15.28,0.02,22.92,0.04
		c3.81,0.01,6.54-1.65,8.59-4.43c0.26-0.34,0.5-0.69,0.73-1.06c1.19-1.91,1.57-3.93,1.65-5.99
		C204.54,252.87,204.26,250.53,204.33,248.23z M247.16,128.86h-4.78c-0.04,0.17-0.08,0.33-0.12,0.5c-0.2,0.85-0.44,1.7-0.74,2.52
		c0,0.02-0.01,0.05-0.02,0.07c-0.4,1.08-0.87,2-1.43,2.74c-0.51,0.69-1.09,1.23-1.74,1.62c-0.27,0.17-0.56,0.31-0.85,0.43h23.79
		c0.04-0.14,0.08-0.29,0.13-0.43c0.18-0.63,0.36-1.25,0.55-1.88c0.58-1.88,1.18-3.75,1.82-5.61
		C258.23,128.86,252.69,128.86,247.16,128.86z M231.31,136.31L231.31,136.31c-1.85-0.73-3.42-0.72-4.86,0
		c-0.25,0.12-0.5,0.27-0.74,0.43h6.83C232.14,136.62,231.73,136.48,231.31,136.31z M140.64,128.85c-0.8,0.01-1.62,0.01-2.43,0
		c-0.59,0.01-1.19,0.01-1.79,0c-3.07,0.01-6.15,0-9.22,0H92.25c-0.06,0-0.11,0.01-0.16,0.01c-0.32,0.03-0.61,0.05-0.83,0.06
		c-0.21,0.01-0.41,0.01-0.6,0.01h-17.6c1.23,2.54,2.59,5.01,4.05,7.41c0.08,0.14,0.17,0.27,0.25,0.41h0.87
		c0.5-0.01,1.01-0.01,1.51,0c0.22-0.01,0.43-0.01,0.65-0.01h56.49c0.09-0.14,0.19-0.28,0.28-0.42c0.57-0.86,1.1-1.74,1.59-2.64
		c0,0,0,0,0.01-0.01c0.11-0.21,0.23-0.43,0.34-0.65c0.72-1.35,1.34-2.75,1.89-4.17L140.64,128.85L140.64,128.85z M223.73,136.31
		c-0.11,0.14-0.22,0.29-0.34,0.43h14.09c0.29-0.12,0.58-0.26,0.85-0.43H223.73z M223.73,136.31c-0.11,0.14-0.22,0.29-0.34,0.43
		h14.09c0.29-0.12,0.58-0.26,0.85-0.43H223.73z M142.42,128.86c-0.47,0-0.95,0-1.43-0.01h-0.35c-0.8,0.01-1.62,0.01-2.43,0
		c-0.59,0.01-1.19,0.01-1.79,0c-3.07,0.01-6.15,0-9.22,0H92.25c-0.06,0-0.11,0.01-0.16,0.01c-0.32,0.03-0.61,0.05-0.83,0.06
		c-0.21,0.01-0.41,0.01-0.6,0.01H76.25c0.2,0.42,0.4,0.84,0.6,1.25c0.4,0.82,0.81,1.63,1.24,2.44c0.49,0.95,1.01,1.89,1.54,2.82
		c0.01,0.05,0.01,0.09,0.02,0.14c0.03,0.19,0.05,0.39,0.06,0.58c0.02,0.2,0.03,0.39,0.03,0.59c0.22-0.01,0.43-0.01,0.65-0.01h61.09
		c1.32-2.11,2.42-4.33,3.3-6.64c0.16-0.42,0.31-0.83,0.45-1.25C144.29,128.86,143.36,128.86,142.42,128.86z M223.73,136.31
		c-0.11,0.14-0.22,0.29-0.34,0.43h14.09c0.29-0.12,0.58-0.26,0.85-0.43H223.73z M140.99,128.85h-0.35c-0.8,0.01-1.62,0.01-2.43,0
		c-0.59,0.01-1.19,0.01-1.79,0c-3.07,0.01-6.15,0-9.22,0H92.25c-0.06,0-0.11,0.01-0.16,0.01c-0.32,0.03-0.61,0.05-0.83,0.06
		c-0.21,0.01-0.41,0.01-0.6,0.01H76.25c0.2,0.42,0.4,0.84,0.6,1.25c0.4,0.82,0.81,1.63,1.24,2.44c0.49,0.95,1.01,1.89,1.54,2.82
		c0.01,0.05,0.01,0.09,0.02,0.14c0.03,0.19,0.05,0.39,0.06,0.58c0.02,0.2,0.03,0.39,0.03,0.59c0.22-0.01,0.43-0.01,0.65-0.01h61.09
		c1.32-2.11,2.42-4.33,3.3-6.64c0.16-0.42,0.31-0.83,0.45-1.25c-0.94,0.01-1.87,0.01-2.81,0.01
		C141.95,128.86,141.47,128.86,140.99,128.85z M294.61,136.32c-0.97-5.29-5.19-8.2-10.58-7.67c-0.34,0.03-0.68,0.03-1.02,0.02
		c-0.07,0.2-0.1,0.3-0.1,0.3H265.4c-0.28-0.01-0.62-0.15-0.86-0.15h-0.77c-5.54,0.04-11.08,0.04-16.61,0.04h-45.08
		c-17.26,0-34.51,0-51.77-0.01h-5.08c-0.94,0.01-1.87,0.01-2.81,0.01c-0.47,0-0.95,0-1.43-0.01h-0.35c-0.8,0.01-1.62,0.01-2.43,0
		c-0.59,0.01-1.19,0.01-1.79,0c-3.07,0.01-6.15,0-9.22,0H92.25c-0.06,0-0.11,0.01-0.16,0.01c-0.32,0.03-0.61,0.05-0.83,0.06
		c-0.21,0.01-0.41,0.01-0.6,0.01H44.48l-21.1-0.01h-0.07c-6.24-0.04-9.77,3.5-9.51,9.78c0.49,11.72,3.15,23,7.41,33.88
		c7.31,18.68,19.11,34.19,34.18,47.24c11.65,10.1,24.8,17.8,39.06,23.6c1.23,0.49,1.72,1.06,1.67,2.42
		c-0.11,3.11-0.09,6.23-0.03,9.34c0.19,11.06,8.16,19.57,18.9,19.63c26.14,0.14,52.27,0.12,78.41,0c4.44-0.03,8.44-1.46,11.6-3.92
		c3.16-2.45,5.5-5.93,6.6-10.01c0.38-1.36,0.62-2.78,0.71-4.26c0.07-1.14,0.11-2.28,0.13-3.43c0.04-2.4,0.01-4.81-0.01-7.21
		c-0.01-0.66,0.09-1.13,0.36-1.53c0.22-0.36,0.58-0.67,1.11-1.03c2.18-1.48,4.72-1.81,7-2.88c0.09-0.04,0.18-0.08,0.27-0.13
		c17.19-8.09,32.3-19.05,44.89-33.29c16.91-19.12,26.45-41.48,28.7-66.98C294.88,138.76,294.83,137.48,294.61,136.32z
		 M286.58,139.51c-0.98,15.36-5.49,29.65-12.97,43.05c-5.37,9.61-11.95,18.39-19.87,25.98c-8.18,7.83-17.34,14.5-27.29,20.03
		c-2.7,1.5-5.43,2.91-8.19,4.22c-11.85,5.63-24.32,9.55-37.31,11.8c-13.93,2.41-27.96,2.98-42.08,1.44
		c-0.94-0.1-1.89-0.21-2.82-0.34c-2.69-0.32-5.36-0.72-8.02-1.18c-0.02,0-0.03,0-0.04-0.01c-5.21-0.89-10.38-2.01-15.51-3.35
		c-0.21-0.12-0.63,0-0.6-0.39c0.01-0.07-0.03-0.13-0.1-0.14c-4.29-0.72-8.29-2.35-12.28-4.01c-14.63-5.46-27.81-13.37-39.56-23.63
		c-15.47-13.51-26.86-29.79-33.37-49.4c-1.9-5.73-2.8-11.69-4.3-17.5c-0.53-2.04-0.29-4.38-0.58-6.59
		c-0.22-1.64,0.26-2.86,2.56-2.78c5.62,0.2,11.25,0.09,16.87,0.1l14.25-0.03c2.94-0.01,5.88-0.01,8.82-0.01
		c1.1-0.01,2.19-0.01,3.29-0.01h0.87c0.65-0.01,1.31-0.01,1.96-0.01h2.21c0.9,0,1.8-0.01,2.7,0h0.28c0.62-0.01,1.24-0.01,1.86,0
		h0.87c0.5-0.01,1.01-0.01,1.51,0c0.22-0.01,0.43-0.01,0.65-0.01h180.88c1.43,0,2.87,0.01,4.3,0.01c6.12,0.01,12.23,0.03,18.35-0.07
		C286.17,136.64,286.71,137.4,286.58,139.51z M142.42,128.86c-0.47,0-0.95,0-1.43-0.01h-0.35c-0.8,0.01-1.62,0.01-2.43,0
		c-0.59,0.01-1.19,0.01-1.79,0c-3.07,0.01-6.15,0-9.22,0H92.25c-0.06,0-0.11,0.01-0.16,0.01c-0.32,0.03-0.61,0.05-0.83,0.06
		c-0.21,0.01-0.41,0.01-0.6,0.01H76.25c0.2,0.42,0.4,0.84,0.6,1.25c0.4,0.82,0.81,1.63,1.24,2.44c0.49,0.95,1.01,1.89,1.54,2.82
		c0.01,0.05,0.01,0.09,0.02,0.14c0.03,0.19,0.05,0.39,0.06,0.58c0.02,0.2,0.03,0.39,0.03,0.59c0.22-0.01,0.43-0.01,0.65-0.01h61.09
		c1.32-2.11,2.42-4.33,3.3-6.64c0.16-0.42,0.31-0.83,0.45-1.25C144.29,128.86,143.36,128.86,142.42,128.86z M223.73,136.31
		c-0.11,0.14-0.22,0.29-0.34,0.43h14.09c0.29-0.12,0.58-0.26,0.85-0.43H223.73z M142.42,128.86c-0.47,0-0.95,0-1.43-0.01h-0.35
		c-0.8,0.01-1.62,0.01-2.43,0c-0.59,0.01-1.19,0.01-1.79,0c-3.07,0.01-6.15,0-9.22,0H92.25c-0.06,0-0.11,0.01-0.16,0.01
		c-0.32,0.03-0.61,0.05-0.83,0.06c-0.21,0.01-0.41,0.01-0.6,0.01H76.25c0.2,0.42,0.4,0.84,0.6,1.25c0.4,0.82,0.81,1.63,1.24,2.44
		c0.49,0.95,1.01,1.89,1.54,2.82c0.01,0.05,0.01,0.09,0.02,0.14c0.03,0.19,0.05,0.39,0.06,0.58c0.02,0.2,0.03,0.39,0.03,0.59
		c0.22-0.01,0.43-0.01,0.65-0.01h61.09c1.32-2.11,2.42-4.33,3.3-6.64c0.16-0.42,0.31-0.83,0.45-1.25
		C144.29,128.86,143.36,128.86,142.42,128.86z M223.73,136.31c-0.11,0.14-0.22,0.29-0.34,0.43h14.09c0.29-0.12,0.58-0.26,0.85-0.43
		H223.73z M140.64,128.85c-0.8,0.01-1.62,0.01-2.43,0c-0.59,0.01-1.19,0.01-1.79,0c-3.07,0.01-6.15,0-9.22,0H92.25
		c-0.06,0-0.11,0.01-0.16,0.01c-0.32,0.03-0.61,0.05-0.83,0.06c-0.21,0.01-0.41,0.01-0.6,0.01h-17.6c1.23,2.54,2.59,5.01,4.05,7.41
		c0.08,0.14,0.17,0.27,0.25,0.41h0.87c0.5-0.01,1.01-0.01,1.51,0c0.22-0.01,0.43-0.01,0.65-0.01h56.49
		c0.09-0.14,0.19-0.28,0.28-0.42c0.57-0.86,1.1-1.74,1.59-2.64c0,0,0,0,0.01-0.01c0.11-0.21,0.23-0.43,0.34-0.65
		c0.72-1.35,1.34-2.75,1.89-4.17L140.64,128.85L140.64,128.85z M224.67,134.72c0.53-1.41,0.57-3.3,0.17-4.66
		c-0.12-0.41-0.22-0.81-0.3-1.2h-18.58c0.39,2.56,1.17,5.08,2.38,7.45c0.06,0.15,0.14,0.29,0.21,0.43h14.84
		c0.12-0.14,0.23-0.29,0.34-0.43h14.6c0.65-0.39,1.23-0.93,1.74-1.62C234.6,134.71,229.21,134.72,224.67,134.72z M231.31,136.31
		L231.31,136.31c-1.85-0.73-3.42-0.72-4.86,0c-0.25,0.12-0.5,0.27-0.74,0.43h6.83C232.14,136.62,231.73,136.48,231.31,136.31z
		 M247.16,128.86h-4.78c-0.04,0.17-0.08,0.33-0.12,0.5c-0.2,0.85-0.44,1.7-0.74,2.52c0,0.02-0.01,0.05-0.02,0.07
		c-0.4,1.08-0.87,2-1.43,2.74c-0.51,0.69-1.09,1.23-1.74,1.62c-0.27,0.17-0.56,0.31-0.85,0.43h23.79c0.04-0.14,0.08-0.29,0.13-0.43
		c0.18-0.63,0.36-1.25,0.55-1.88c0.58-1.88,1.18-3.75,1.82-5.61C258.23,128.86,252.69,128.86,247.16,128.86z M140.64,128.85
		c-0.8,0.01-1.62,0.01-2.43,0c-0.59,0.01-1.19,0.01-1.79,0c-3.07,0.01-6.15,0-9.22,0H92.25c-0.06,0-0.11,0.01-0.16,0.01
		c-0.32,0.03-0.61,0.05-0.83,0.06c-0.21,0.01-0.41,0.01-0.6,0.01h-0.62c-2.11,2.5-4.19,4.93-6.32,7.29
		c-0.03,0.03-0.06,0.06-0.09,0.09c0,0.01,0,0.01-0.01,0.02c-0.11,0.14-0.24,0.27-0.36,0.41h53.62c0.09-0.14,0.19-0.28,0.28-0.42
		c0.57-0.86,1.1-1.74,1.59-2.64c0,0,0,0,0.01-0.01c0.11-0.21,0.23-0.43,0.34-0.65c0.72-1.35,1.34-2.75,1.89-4.17H140.64z
		 M231.31,136.31L231.31,136.31c-1.85-0.73-3.42-0.72-4.86,0c-0.25,0.12-0.5,0.27-0.74,0.43h6.83
		C232.14,136.62,231.73,136.48,231.31,136.31z M247.16,128.86h-4.78c-0.04,0.17-0.08,0.33-0.12,0.5c-0.2,0.85-0.44,1.7-0.74,2.52
		c0,0.02-0.01,0.05-0.02,0.07c-0.4,1.08-0.87,2-1.43,2.74c-0.51,0.69-1.09,1.23-1.74,1.62c-0.27,0.17-0.56,0.31-0.85,0.43h23.79
		c0.04-0.14,0.08-0.29,0.13-0.43c0.18-0.63,0.36-1.25,0.55-1.88c0.58-1.88,1.18-3.75,1.82-5.61
		C258.23,128.86,252.69,128.86,247.16,128.86z"/>
</g>
</svg>
