<?xml version="1.0" encoding="utf-8"?>
<!-- Generator: Adobe Illustrator 23.0.3, SVG Export Plug-In . SVG Version: 6.00 Build 0)  -->
<svg version="1.1" id="Layer_1" xmlns="http://www.w3.org/2000/svg" xmlns:xlink="http://www.w3.org/1999/xlink" x="0px" y="0px"
	 viewBox="0 0 320 320" style="enable-background:new 0 0 320 320;" xml:space="preserve">
<style type="text/css">
	.st0{fill:#4EAB33;}
	.st1{fill:#E2A44B;}
	.st2{fill:#95D087;}
	.st3{fill:#262523;}
</style>
<g>
	<g>
		<polygon class="st0" points="93.53,158.52 62.15,194.79 31.1,215.64 50.73,216.66 83.75,255.45 110.32,270.56 144.27,301.54 
			156.19,276.9 184.53,244.75 187.63,241.21 		"/>
		<g>
			
				<rect x="210.85" y="43.23" transform="matrix(0.6601 -0.7512 0.7512 0.6601 20.7002 210.937)" class="st1" width="65.16" height="78.73"/>
			<path class="st1" d="M259.54,145.6c-8.79-2.49-16.15-7.22-22.96-12.81c-11.96-9.82-22.51-21.29-35.64-29.76
				c-6.98-4.5-14.91-7.15-22.53-10.42c0.82-2.83,2.16-5.51,2.75-8.47c1.06-5.28,4.16-9.48,9.71-11.17
				c8.21-2.49,13.04-7.3,14.03-16.39c0.58-5.35,4.86-8.9,10.17-10.74c8.77-3.03,11.5-6.07,12.93-14.96
				c0.71-4.37,2.25-5.23,4.96-6.75c1.53-0.86,3.33-1.07,4.89-0.48c0.61,0.23,1.53,2.57,1.73,3.63c1.38,7.25,8.07,7.77,13.35,10.06
				c5.2,2.25,3.12,1.07,3.94,6.31c1.27,8.08,11.16,13.75,18.93,13.51c5.35-0.16,2.68,0.18,3.42,5.3c0.89,6.13,8.06,9.69,13.97,12.24
				c2.7,1.17,5.52,2.09,8.43,2.68c2.57,0.52,4.43,1.87,4.59,4.96c0.26,4.85-3.56,6.75-7.71,8.22c-8.92,3.17-14.58,9.21-15.57,18.87
				c-0.37,3.62-2.43,5.89-5.8,7.12c-1.99,0.73-4.05,1.25-5.96,2.19c-9.54,4.68-14.14,15.96-9,21.87
				C262.42,142.73,260.53,143.98,259.54,145.6z M219.48,100.59c1.18,0.89,2.65,2.11,4.58,0.69c1.91-1.41,0.76-2.94,0.31-4.38
				c-0.4-1.29-0.59-2.68-1.07-3.92c-0.66-1.72,0.49-5.47-3.04-4.22c-2.72,0.96-3.13,3.93-3.12,6.48
				C217.15,97.36,218.06,99.01,219.48,100.59z M256.33,86.29c1.35,1.08,2.79,2.44,5.09,0.69c0.73-0.56-0.97-11.18-1.83-11.96
				c-1.07-0.97-2.13-0.46-3.21,0.52C253.81,77.86,253.72,83.61,256.33,86.29z M229.29,53.51c2.29,1.83,4.77,2.69,7.8,1.27
				c0.85-0.4,2.14-1.66,2.11-2.27c-0.15-2.95-3.09-2.75-4.93-3.81c-0.32-0.19-0.62-0.42-0.97-0.57c-1.69-0.73-3.08-3.86-5.38-0.75
				C226.03,49.93,227.81,51.96,229.29,53.51z M247.47,117.31c2.41,0.13,5.17,1.24,7.84-0.17c1.67-0.88,0.6-2.71-0.51-3.4
				c-2.24-1.4-4.79-1.42-7.3,0.75C246.62,115.24,246.23,116.28,247.47,117.31z M287.56,87.88c1.31-2.58,0.28-3.88-1.2-4.79
				c-1.97-1.21-4.23-2.04-6.42,0.52c-1.2,1.41,0.07,2.48,1.09,2.59C283.33,86.44,284.67,89.53,287.56,87.88z M198.71,80
				c2.61,0.48,4.46-2.41,6.8-3.34c1.36-0.55,2.25-1.69,1.04-2.74c-2.14-1.86-4.39-0.48-6.43,1.38
				C198.83,76.48,197.63,77.83,198.71,80z M238.94,79.98c-0.57-2.38,3.33-4.99,1.48-7.68c-0.76-1.11-2.19,0.14-3.06,1.13
				c-2.05,2.33-3.12,4.78-1.35,7.18C236.64,81.47,237.65,81.34,238.94,79.98z"/>
		</g>
		<g>
			<path class="st2" d="M154.01,91.96c0,0,26.8-7.33,49.36,9.84s42.7,39.78,62.81,45.56c0,0,3.67,0.03,0.22,3.97
				c-3.45,3.94-81.86,93.42-81.86,93.42s-21.86-11.31-58.75-49.26c0,0-26.29-23.76-37.5-30.99
				C88.27,164.5,149.99,92.76,154.01,91.96z"/>
			<path class="st2" d="M178.19,91.72c1.42,0.28,2.83,0.57,5.05,1.01c-4.95,5.82-9.82,10.9-13.54,16.86
				c-3.7,5.91-5.6,12.21-4.17,19.02c1.72,8.2,8.52,10.73,15.45,5.96c5.73-3.94,8.41-9.8,9.76-16.28c0.78-3.71,1.11-7.52,1.45-11.3
				c0.32-3.56,0.39-7.13,0.57-10.75c2.39,0.11,3.86,1.33,5.46,2.24c7.17,4.03,7.11,4.02,4.29,11.47c-1.97,5.2-3.23,10.74,1.6,14.71
				c4.67,3.84,10.41,2.84,14.7-0.83c5.45-4.67,9.08-3.21,13.01,1.37c1.8,2.1,4.15,3.74,6.88,6.13c-6.12,1.05-11.65,1.85-17.11,2.97
				c-8.06,1.65-15.99,3.75-21.69,10.5c-3.34,3.95-6.09,8.26-3.51,13.45c2.61,5.25,7.64,5.45,12.76,4.8c5-0.63,9.45-2.58,13.45-5.79
				c6.49-5.2,11.49-11.76,16.86-17.98c1.37-1.58,1.52-3.4,1.64-5.65c8.13,5.33,15.77,11.04,25.08,13.73
				c3.5,1.01,1.43,2.58,0.22,3.97c-8.46,9.65-16.92,19.3-25.39,28.94c-16.94,19.28-34,38.46-50.72,57.94
				c-3.23,3.76-5.49,3.93-9.34,1.51c-12.67-7.97-23.25-18.3-33.5-29.01c-2.53-2.64-14.05-8.19-16.51-10.68
				c-3.66-3.7-5.96-6.96-9.6-10.68c-2.79-2.86-2.62-5.9-5.69-2.75c-1.64-1.45-6.4-5.64-8.04-7.08c2.57-3.51,3.97-4.49,0.66-6.81
				c-5.51-3.87-11.06-7.67-16.59-11.51c16.26-18.46,32.49-36.93,48.78-55.36c0.92-1.04,1.85-2.25,2.81-3.55
				c7.94-10.78,21.62-15.64,33.08-11.33C176.98,91.19,177.59,91.44,178.19,91.72z M163.55,185.11c-1.86,3.03-4.32,6.32-2.84,10.67
				c1.44,4.22,4.82,6.14,8.9,6.8c7.34,1.19,14.31-0.4,20.76-4.19c7.41-4.36,14.02-9.87,20.72-15.24c1.71-1.37,3.02-3,2.45-5.37
				c-0.63-2.66-2.87-2.59-4.94-2.73c-8.67-0.58-17.35-0.5-26.02,0.59C175.37,176.54,169.29,179.93,163.55,185.11z M150.08,171.24
				c1.44-1.67,3.19-4.87,4.2-8.34c3.76-12.93,0.81-25.54-1.29-38.17c-0.28-1.68-1.44-2.61-3.11-2.79c-2.14-0.23-3.48,0.91-4.6,2.7
				c-4.13,6.65-8.27,13.29-11.57,20.4c-3.47,7.48-5.13,15.2-2.83,23.22C133.6,177.72,142.31,179.62,150.08,171.24z M170.37,156.89
				c-6.81,7.75-13.61,15.5-20.43,23.24c-1.93,2.18-3.34,4.56-0.77,6.91c2.74,2.5,4.78,0.34,6.62-1.76
				c13.75-15.63,27.5-31.27,41.25-46.9c1.85-2.11,3.72-4.57,1.25-6.94c-2.73-2.62-5.08-0.57-7.12,1.78
				C184.26,141.13,177.31,149,170.37,156.89z"/>
		</g>
		<path class="st0" d="M108.24,180.11c1.64,1.45,6.17,5.39,7.81,6.84c-0.49,2.12,1.03,1.45,2.69,3.12
			c3.68,3.7,7.13,6.95,10.69,10.76c2.16,2.31,1.97,4.96,4.99,3.92c1.56,1.35,3.12,2.69,4.67,4.04c-1.97,2.84-1.35,5.02,0.97,7.47
			c10.82,11.47,22.27,22.2,35.38,31.02c2.91,1.96,3.86,3.54,1,6.57c-4.99,5.28-9.75,10.8-14.42,16.37
			c-2.14,2.55-3.75,3.07-6.43,0.69c-30.06-26.56-60.2-53.02-90.33-79.51c6.52-7.53,13.03-15.07,19.55-22.6
			c6.39,2.66,11.83,6.85,17.32,10.9C104.55,181.49,105.23,181.39,108.24,180.11z"/>
		<path class="st0" d="M58.25,198.2c4.85,4.11,9.7,8.24,14.57,12.34c2.24,1.89,2.33,3.47-0.28,5.39c-1.98,1.45-3.57,3.44-5.3,5.22
			c-1.92,1.98-1.88,4.18-0.3,6.16c1.73,2.15,3.94,1.75,6.1,0.43c0.32-0.2,0.61-0.46,0.91-0.69c9.31-7.33,9.38-7.41,17.98,0.33
			c9.53,8.57,10.65,6.02,1.09,17.11c-2.43,2.82-7.3,6.07-2.64,9.85c4.29,3.48,7.05-1.33,9.63-4.22c7.85-8.79,7.82-8.82,16.4-1.27
			c0.28,0.25,0.56,0.49,0.84,0.74c7.43,6.53,7.43,6.53,2.14,14.89c-0.31,0.48-0.51,1.02-0.81,1.51c-1.53,2.52-2.23,5.13,0.57,6.99
			c2.86,1.9,4.84-0.08,6.73-2.24c6.71-7.67,6.74-7.65,14.1-1.16c2.11,1.86,4.22,3.72,6.29,5.62c8.19,7.51,7.87,4.31,3.15,15.3
			c-2.41,5.6-5.27,11.01-7.73,16.59c-1.47,3.32-2.58,2.91-4.57,0.44c-5.37-6.7-11.37-12.93-16.37-19.89
			c-5.22-7.28-12.65-11.24-20.45-14.12c-13.86-5.11-24.24-13.61-30.55-26.99c-5.4-11.45-15.59-17.71-25.75-24.06
			c-3.95-2.46-9.72-3.26-12.92-6.82C39.68,210.18,49.66,203.66,58.25,198.2z"/>
	</g>
	<g>
		<path class="st1" d="M176.72,100.7c-0.28,8.31-0.82,15.25-5.3,21.39c-1.19,1.63-2.71,3.65-4.75,2.98c-1.86-0.6-1.43-3.06-1.3-4.76
			C165.97,112.59,170.91,107.12,176.72,100.7z"/>
		<path class="st1" d="M206.36,107.23c0.47,1.52,4.2,1.93,1.43,4.32c-2.23,1.93-5.41,5.02-7.92,2.65c-2.07-1.96,0.27-5.48,1.92-7.83
			C203.9,103.37,204.77,106.94,206.36,107.23z"/>
		<g>
			<path class="st3" d="M255.76,126.85c-4.81-5.38-1.23-15.03,7.01-18.71c1.66-0.74,3.45-1.11,5.18-1.65
				c2.93-0.93,4.65-2.82,4.83-5.96c0.46-8.4,5.2-13.43,12.96-15.81c3.6-1.11,6.9-2.6,6.46-6.85c-0.38-3.68-3.39-4.68-6.94-4.91
				c-7.32-0.48-11.87-4.47-13.3-11.76c-0.88-4.5-3.04-6.55-7.77-6.64c-6.87-0.13-11.56-4.3-13.03-11.41
				c-0.96-4.61-2.94-6.98-8.07-6.9c-6.14,0.1-11.24-4.74-12.77-11.13c-0.45-1.87-0.4-3.94-2.2-5.13c-4.23-3.17-9.15-1.37-9.56,3.92
				c-0.72,9.24-5.76,14.18-14.25,16.52c-3.57,0.99-5.23,3.4-5.58,7.22c-0.68,7.25-5.25,12.69-12.25,14.57
				c-4.12,1.11-6.96,2.9-7.5,7.48c-0.34,2.84-2.11,4.22-4.87,3.97c-2.92-0.26-3.52-2.43-3.5-4.95c0.05-5.95,5.14-12.34,12.01-14.21
				c4.87-1.33,7.44-3.54,7.76-8.93c0.38-6.29,5.42-11.66,12.11-13.45c4.64-1.24,7.08-3.52,7.51-8.62
				c0.61-7.13,6.69-13.14,13.42-14.14c6.34-0.95,13.52,3.7,14.8,10.53c1.02,5.44,3.48,7.72,9.08,7.81
				c5.88,0.09,8.92,4.67,11.78,9.08c1.04,8.27,2.22,9.37,9.61,8.92c6.35,2.15,10.72,6.07,11.82,13.15c0.47,3.06,2.23,5.33,5.54,5.2
				c5.94-0.24,9.89,2.79,13.37,6.84c3.81,11.22-0.08,18.64-11.88,22.31c-3.54,1.1-5.55,3.03-6.03,6.84
				c-1.12,8.75-4.71,12.82-13.29,15.29c-3.25,0.94-5.75,2.7-6.23,6.14C261.47,125.38,259.22,126.72,255.76,126.85z"/>
			<path class="st3" d="M216.24,90.05c-1.33-1.45-2.2-2.92-2.3-4.78c-0.12-2.23,0.12-4.8,2.48-5.52c3.07-0.94,2.21,2.29,2.87,3.82
				c0.48,1.1,0.71,2.33,1.11,3.47c0.46,1.27,1.55,2.67-0.09,3.81C218.68,92.01,217.33,90.87,216.24,90.05z"/>
			<path class="st3" d="M248.23,79.15c-2.43-2.46-2.6-7.47-0.42-9.4c0.92-0.81,1.83-1.2,2.82-0.31c0.8,0.72,2.77,10.08,2.14,10.53
				C250.81,81.41,249.47,80.16,248.23,79.15z"/>
			<path class="st3" d="M222.88,49.34c-1.37-1.42-3.04-3.27-1.48-5.41c1.9-2.61,3.27,0.18,4.8,0.89c0.31,0.14,0.59,0.36,0.88,0.54
				c1.67,1.01,4.26,0.96,4.53,3.54c0.05,0.54-1.03,1.58-1.77,1.9C227.22,51.9,224.99,51.04,222.88,49.34z"/>
			<path class="st3" d="M241.74,105.87c-1.14-0.95-0.84-1.84-0.09-2.47c2.13-1.78,4.38-1.65,6.43-0.34c1.01,0.65,2.04,2.3,0.6,3
				C246.36,107.17,243.88,106.09,241.74,105.87z"/>
			<path class="st3" d="M275.93,81.89c-2.49,1.32-3.8-1.44-5.86-1.76c-0.9-0.14-2.08-1.13-1.07-2.31c1.83-2.15,3.87-1.32,5.66-0.18
				C276.01,78.51,276.98,79.7,275.93,81.89z"/>
			<path class="st3" d="M196.97,71.16c-1.05-1.94-0.05-3.07,1.05-4.05c1.73-1.54,3.66-2.65,5.63-0.93c1.11,0.97,0.38,1.93-0.8,2.35
				C200.81,69.25,199.3,71.7,196.97,71.16z"/>
			<path class="st3" d="M232.57,72.89c-1.08,1.13-1.97,1.2-2.56,0.42c-1.68-2.17-0.83-4.27,0.88-6.22c0.73-0.83,1.94-1.85,2.66-0.85
				C235.29,68.67,231.96,70.78,232.57,72.89z"/>
			<g>
				<path class="st1" d="M216.22,135.8c-5.62,6.98-10.47,12.49-18.24,13.74c-1.53,0.25-3.56,0.76-4.23-1.05
					c-0.59-1.6,0.7-3.13,1.88-4.31C201.07,138.78,207.86,137.23,216.22,135.8z"/>
				<path class="st3" d="M155.21,178.77c5.53-5.05,11.34-8.39,18.16-9.42c8.2-1.23,16.38-1.5,24.55-1.15
					c1.95,0.08,4.06-0.03,4.6,2.48c0.48,2.24-0.79,3.81-2.43,5.15c-6.43,5.25-12.79,10.63-19.88,14.93
					c-6.17,3.74-12.77,5.41-19.67,4.45c-3.83-0.53-6.97-2.28-8.23-6.25C150.99,184.86,153.38,181.69,155.21,178.77z M188.64,175.75
					c-9.95,0.03-18.62,0-26.26,6.22c-1.4,1.14-3.31,2.29-2.63,4.37c0.66,2.02,2.83,1.79,4.56,1.75
					C173.71,187.92,180.64,182.21,188.64,175.75z"/>
				<path class="st3" d="M142.81,165.92c-7.51,8.12-15.68,6.52-18.03-2.4c-1.99-7.56-0.25-14.92,3.19-22.09
					c3.27-6.82,7.33-13.21,11.37-19.61c1.09-1.73,2.38-2.83,4.39-2.67c1.56,0.13,2.64,0.99,2.87,2.58
					c1.69,11.94,4.19,23.83,0.35,36.18C145.93,161.23,144.21,164.3,142.81,165.92z M140.61,133.2c-4.9,8.83-9.82,15.88-9.21,24.66
					c0.16,2.26-0.1,5.34,2.63,5.64c2.55,0.28,3.7-2.62,4.74-4.68C142.82,150.83,141.96,142.79,140.61,133.2z"/>
				<path class="st3" d="M162.27,151.84c6.72-7.64,13.45-15.27,20.14-22.94c1.98-2.27,4.24-4.27,6.76-1.85
					c2.28,2.19,0.46,4.58-1.34,6.61c-13.32,15.14-26.64,30.29-39.95,45.43c-1.79,2.03-3.76,4.13-6.28,1.82
					c-2.37-2.16-0.98-4.45,0.88-6.57C149.09,166.86,155.68,159.35,162.27,151.84z"/>
				<path class="st3" d="M127.29,198.06c-3.08,1.13-5.46,0.29-7.55-2.23c-2.85-3.46-5.97-6.65-9.34-9.59
					c-1.03-0.89-1.47-1.91-1.56-3.01c-0.16-1.88,1.01-3.8,2.8-4.53c2.8-1.13,5.38,0.8,7.85,4.54c1.72,2.59,4.02,4.7,6.57,6.48
					C129.85,192.36,129.47,195.16,127.29,198.06z"/>
				<path class="st1" d="M188.64,175.75c-7.99,6.46-14.93,12.17-24.34,12.34c-1.73,0.03-3.89,0.27-4.56-1.75
					c-0.68-2.08,1.23-3.23,2.63-4.37C170.01,175.75,178.68,175.78,188.64,175.75z"/>
				<path class="st1" d="M140.61,133.2c1.35,9.59,2.21,17.64-1.84,25.62c-1.04,2.06-2.2,4.96-4.74,4.68
					c-2.73-0.3-2.47-3.38-2.63-5.64C130.8,149.08,135.71,142.03,140.61,133.2z"/>
				<path class="st3" d="M134.26,309.06c-1.58,1.92-4.26,2.24-6.12,0.83c-0.71-0.54-1.35-1.2-1.96-1.95
					c-7.76-9.52-15.62-18.96-23.42-28.45c-1.12-1.37-2.39-2.43-4.06-3.11c-2.09-0.85-3.99-2.16-6.13-2.84
					c-16.93-5.35-28.94-16.12-36.44-32.23c-4.87-10.47-15.9-13.83-24.54-19.9c-4.66-3.27-9.68-6.05-14.46-9.16
					c-4.65-3.03-4.44-6,0.56-9.38c2.29-1.55,4.51-3.25,6.92-4.53c18.86-9.99,33.51-24.76,47.26-41.06
					c20.43-24.22,41.76-47.68,62.57-71.58c2.76-3.18,5.71-4.73,9.66-5.43c12.08-2.13,23.8-1.15,35.43,1.03
					c6.89,3.19,14.02,5.85,20.39,10.08c11.99,7.97,21.82,18.45,32.83,27.55c6.27,5.18,12.99,9.63,20.88,12.19
					c3.9,2.12,8.38,2.14,12.7,2.78c1.3,1.36,1.99,3.07,2.44,4.9c-1.4,1.72-2.76,3.49-4.22,5.16
					c-34.87,39.7-69.71,79.42-104.66,119.03c-4.82,5.46-8.95,11.13-11.85,17.84c-3.71,8.59-8.15,16.9-12.08,25.41
					C135.47,307.3,134.93,308.25,134.26,309.06z M148.56,88.61c-1.03,0.13-2.07,0.18-3.11,0.23c-1.98,0.09-3.56,1.07-5.06,2.78
					c-17.93,20.5-35.89,40.97-53.95,61.37c-2.82,3.19-1.71,4.21,1.53,4.71c5.13,3.51,10.28,6.99,15.38,10.54
					c0.81,0.56,1.45,1.17,1.92,1.82c2.5,3.52-1.81,8.24-5.69,6.34c-0.73-0.36-1.44-0.84-2.18-1.37c-5.08-3.72-10.12-7.57-16.09-9.95
					c-2.8-3.13-3.89-0.36-8.3,3.82c-3.57,3.38-5.33,6.24-9.43,10.54c-4.59,4.82-4.35,5.93-1.22,7.52
					c27.8,24.45,55.63,48.87,83.37,73.39c2.99,2.64,4.6,1.33,7.44-2.57c3.54-4.85,7.62-9.29,11.96-13.45
					c3.53-3.38,2.75-4.94-0.14-6.86c-12.16-8.07-22.72-17.99-32.66-28.63c-2.13-2.28-2.67-4.33-0.75-7.07
					c3.32-2.07,5.51-0.81,7.83,1.63c9.42,9.93,19.16,19.49,30.93,26.77c3.57,2.21,5.71,1.99,8.84-1.65
					c16.2-18.86,32.72-37.44,49.13-56.12c8.2-9.34,16.41-18.68,24.6-28.03c1.18-1.34,3.16-2.88-0.11-3.76
					c-8.71-2.34-15.79-7.59-23.34-12.46c-0.17,2.14-0.36,3.87-1.68,5.4c-5.21,6.03-10.07,12.36-16.31,17.44
					c-3.84,3.13-8.08,5.08-12.81,5.8c-4.84,0.73-9.58,0.66-11.92-4.26c-2.32-4.87,0.37-9.02,3.61-12.84
					c5.53-6.53,13.05-8.7,20.69-10.45c5.18-1.19,10.41-2.07,16.2-3.21c-2.51-2.21-4.69-3.71-6.35-5.66
					c-3.6-4.26-6.99-5.56-12.23-1.01c-4.12,3.58-9.56,4.66-13.88,1.12c-4.46-3.66-3.15-8.94-1.17-13.92
					c2.83-7.13,2.88-7.12-3.79-10.78c-1.49-0.82-2.85-1.95-5.1-2c-0.25,3.44-0.4,6.83-0.78,10.21c-0.41,3.59-0.81,7.22-1.62,10.76
					c-1.42,6.18-4.09,11.8-9.57,15.67c-6.64,4.69-13,2.44-14.43-5.3c-1.19-6.43,0.75-12.44,4.36-18.14
					c3.65-5.74,8.36-10.67,13.15-16.3l0,0c-2.12-0.37-3.83-1.46-5.94-1.86C162.41,87.41,155.98,87.7,148.56,88.61z M29.46,209.31
					c1.05,0.39,1.99,0.98,2.82,1.71c2.77,2.47,6.23,3.97,9.38,5.9c9.33,5.72,18.69,11.36,23.57,21.87
					c5.51,11.85,15.3,20.85,27.65,25.05c7.56,2.57,14.77,6.17,19.68,13.18c4.55,6.5,10.07,12.27,14.98,18.51
					c1.82,2.3,2.86,2.66,4.31-0.52c2.45-5.35,5.27-10.54,7.67-15.91c4.68-10.49,4.92-7.52-2.55-14.37c-2.09-1.92-4.22-3.8-6.34-5.67
					c-6.33-5.57-6.51-5.42-12.85,1.84c-1.83,2.09-3.74,4.01-6.4,2.27c-2.6-1.7-1.89-4.19-0.38-6.62c0.29-0.47,0.5-0.99,0.8-1.45
					c5.18-8.05,5.18-8.05-1.68-14.08c-0.26-0.23-0.52-0.46-0.78-0.69c-7.92-6.96-7.89-6.94-15.49,1.58c-2.5,2.8-5.21,7.42-9.17,4.22
					c-4.3-3.48,0.36-6.67,2.72-9.4c9.27-10.74,8.15-8.3-0.64-16.21c-8.01-7.21-8.01-7.06-17.19,0.29c-0.27,0.21-0.73,0.55-1.02,0.72
					c-1.94,1.11-3.87,1.38-5.36-0.5c-1.45-1.84-1.44-3.92,0.42-5.85c1.67-1.73,3.22-3.65,5.11-5.07c2.5-1.88,2.46-3.38,0.38-5.12
					c-4.49-3.78-8.97-7.58-13.46-11.38c-1.37-1.31-2.13-3.89-4.97-2.06c-8,5.17-16,10.32-24,15.48
					C27.51,208.3,28.45,208.94,29.46,209.31z M176.72,100.7c-5.81,6.42-10.75,11.89-11.35,19.61c-0.13,1.7-0.56,4.15,1.3,4.76
					c2.04,0.66,3.56-1.36,4.75-2.98C175.9,115.95,176.44,109.01,176.72,100.7z M216.22,135.8c-8.36,1.43-15.15,2.98-20.58,8.39
					c-1.18,1.17-2.47,2.71-1.88,4.31c0.67,1.8,2.7,1.29,4.23,1.05C205.75,148.29,210.6,142.79,216.22,135.8z M206.36,107.23
					c-1.59-0.29-2.46-3.86-4.57-0.86c-1.65,2.35-3.99,5.87-1.92,7.83c2.51,2.37,5.69-0.72,7.92-2.65
					C210.56,109.16,206.83,108.75,206.36,107.23z"/>
			</g>
		</g>
	</g>
</g>
</svg>
